# File created by Blade
# Date/Time:  Tue Jan 27 17:16:36 2015
#---------------------------------------------------------
:version 1.10
:name HOM
:units
  mass 1.0
  length 1.000000
  angle deg
:documentation
     Acclaim Skeleton File
:root
   axis xyz
   order TX TY TZ RX RY RZ
   position 0.000000 0.000000 0.000000
   orientation 0 0 0
:bonedata
   begin
      id 1
      name Spine_dum
      direction 0.000000 1.000000 0.000000
      length 7.539951
      axis 0.0 0.0 0.0 xyz
   end
   begin
      id 2
      name LeftUpLeg_dum
      direction 1.000000 0.000000 0.000000
      length 3.345476
      axis 0.0 0.0 0.0 xyz
   end
   begin
      id 3
      name RightUpLeg_dum
      direction -1.000000 0.000000 0.000000
      length 3.345476
      axis 0.0 0.0 0.0 xyz
   end
   begin
      id 4
      name Spine
      direction 0.000000 1.000000 0.000000
      length 0.000000
      axis 0.0 0.0 0.0 xyz
      dof rx ry rz
   end
   begin
      id 5
      name Spine_dum1
      direction 0.000000 1.000000 0.000000
      length 15.093809
      axis 0.0 0.0 0.0 xyz
   end
   begin
      id 6
      name Spine_dum2
      direction 0.000000 1.000000 0.000000
      length 9.738928
      axis 0.0 0.0 0.0 xyz
   end
   begin
      id 7
      name Spine_dum3
      direction 0.000000 1.000000 0.000000
      length 9.738928
      axis 0.0 0.0 0.0 xyz
   end
   begin
      id 8
      name Head
      direction 0.000000 1.000000 0.000000
      length 4.527550
      axis 0.0 0.0 0.0 xyz
      dof rx ry rz
   end
   begin
      id 9
      name LeftShoulder
      direction 1.000000 0.000000 0.000000
      length 7.084015
      axis 0.0 0.0 -90.0 xyz
      dof rx ry rz
   end
   begin
      id 10
      name LeftArm
      direction 1.000000 0.000000 0.000000
      length 10.259319
      axis 0.0 0.0 -90.0 xyz
      dof rx ry rz
   end
   begin
      id 11
      name LeftForeArm
      direction 1.000000 0.000000 0.000000
      length 9.896984
      axis 0.0 0.0 -90.0 xyz
      dof ry rz rx
   end
   begin
      id 12
      name LeftHand
      direction 0.000000 0.000000 0.000000
      length 0.000000
      axis 0.0 0.0 -90.0 xyz
      dof rx ry rz
   end
   begin
      id 13
      name LeftHand_dum1
      direction 0.000000 0.000000 0.000000
      length 0.000000
      axis 0.0 0.0 -90.0 xyz
   end
   begin
      id 14
      name LeftHand_dum2
      direction 1.000000 0.000000 0.000000
      length 3.937000
      axis 0.0 0.0 -90.0 xyz
   end
   begin
      id 15
      name LeftHandThumb1
      direction 0.000000 0.000000 1.000000
      length 3.937000
      axis 0.0 0.0 -90.0 xyz
      dof rx rz ry
   end
   begin
      id 16
      name RightShoulder
      direction -1.000000 0.000000 0.000000
      length 7.084015
      axis 0.0 0.0 90.0 xyz
      dof rx ry rz
   end
   begin
      id 17
      name RightArm
      direction -1.000000 0.000000 0.000000
      length 10.259319
      axis 0.0 0.0 90.0 xyz
      dof rx ry rz
   end
   begin
      id 18
      name RightForeArm
      direction -1.000000 0.000000 0.000000
      length 9.896984
      axis 0.0 0.0 90.0 xyz
      dof ry rz rx
   end
   begin
      id 19
      name RightHand
      direction 0.000000 0.000000 0.000000
      length 0.000000
      axis 0.0 0.0 90.0 xyz
      dof rx ry rz
   end
   begin
      id 20
      name RightHand_dum1
      direction 0.000000 0.000000 0.000000
      length 0.000000
      axis 0.0 0.0 90.0 xyz
   end
   begin
      id 21
      name RightHand_dum2
      direction -1.000000 0.000000 0.000000
      length 3.937000
      axis 0.0 0.0 90.0 xyz
   end
   begin
      id 22
      name RightHandThumb1
      direction 0.000000 0.000000 1.000000
      length 3.937000
      axis 0.0 0.0 90.0 xyz
      dof rx rz ry
   end
   begin
      id 23
      name LeftUpLeg
      direction 0.000000 -1.000000 0.000000
      length 19.114733
      axis 0.0 0.0 0.0 xyz
      dof rx ry rz
   end
   begin
      id 24
      name LeftLeg
      direction 0.000000 -1.000000 0.000000
      length 16.045604
      axis 0.0 0.0 0.0 xyz
      dof rx ry rz
   end
   begin
      id 25
      name LeftFoot
      direction 0.000000 -0.258819 0.965926
      length 5.543155
      axis 15.0 0.0 0.0 xyz
      dof rx ry rz
   end
   begin
      id 26
      name LeftToeBase
      direction 0.000000 0.000000 1.000000
      length 2.952750
      axis 0.0 0.0 0.0 xyz
      dof rx ry rz
   end
   begin
      id 27
      name RightUpLeg
      direction 0.000000 -1.000000 0.000000
      length 19.114733
      axis 0.0 0.0 0.0 xyz
      dof rx ry rz
   end
   begin
      id 28
      name RightLeg
      direction 0.000000 -1.000000 0.000000
      length 16.045604
      axis 0.0 0.0 0.0 xyz
      dof rx ry rz
   end
   begin
      id 29
      name RightFoot
      direction 0.000000 -0.258819 0.965926
      length 5.543155
      axis 15.0 0.0 0.0 xyz
      dof rx ry rz
   end
   begin
      id 30
      name RightToeBase
      direction 0.000000 0.000000 1.000000
      length 2.952750
      axis 0.0 0.0 0.0 xyz
      dof rx ry rz
   end
:hierarchy
   begin
      root Spine_dum LeftUpLeg_dum RightUpLeg_dum
      Spine_dum Spine
      LeftUpLeg_dum LeftUpLeg
      RightUpLeg_dum RightUpLeg
      Spine Spine_dum1 Spine_dum2 Spine_dum3
      Spine_dum1 Head
      Spine_dum2 LeftShoulder
      Spine_dum3 RightShoulder
      LeftShoulder LeftArm
      LeftArm LeftForeArm
      LeftForeArm LeftHand
      LeftHand LeftHand_dum1 LeftHand_dum2
      LeftHand_dum1 LeftHandThumb1
      RightShoulder RightArm
      RightArm RightForeArm
      RightForeArm RightHand
      RightHand RightHand_dum1 RightHand_dum2
      RightHand_dum1 RightHandThumb1
      LeftUpLeg LeftLeg
      LeftLeg LeftFoot
      LeftFoot LeftToeBase
      RightUpLeg RightLeg
      RightLeg RightFoot
      RightFoot RightToeBase
   end

# File created by Blade
# Date/Time:  Tue Jan 27 17:16:27 2015
# Frame Rate: 120.000 fps
#------------------------------------------------------
:FULLY-SPECIFIED
:DEGREES
2676
root -3.377802 36.533173 3.489969 57.311475 62.476907 52.038077
Spine 4.200445 -5.369690 -12.845114
Head -5.034089 3.898186 -7.276184
LeftShoulder 7.052542 -18.818113 7.563037
LeftArm 30.937096 -9.015193 -55.691122
LeftForeArm 9.682456 -0.000000 61.928976
LeftHand -12.098679 -0.000000 49.368030
LeftHandThumb1 -26.253704 0.000000 33.147579
RightShoulder -3.364802 -16.938224 -4.647315
RightArm 4.649866 -13.576362 52.628888
RightForeArm -166.605256 0.000000 29.971650
RightHand 0.187688 -0.000000 3.833178
RightHandThumb1 -24.326973 -0.000000 -32.862282
LeftUpLeg -58.374329 44.964677 4.987033
LeftLeg 104.226418 -0.000000 -0.000000
LeftFoot -6.204333 3.121133 -32.120767
LeftToeBase 16.449012 -0.000000 -0.000000
RightUpLeg -26.365665 -27.352606 -4.907917
RightLeg 34.238808 -0.000000 -0.000000
RightFoot -30.313743 -24.409704 11.314593
RightToeBase 2.133801 -0.000000 -0.000000
2677
root -3.391444 36.530992 3.464327 56.918535 62.393637 51.736150
Spine 4.380153 -5.124788 -12.706855
Head -5.195184 3.781736 -7.343876
LeftShoulder 7.190000 -18.881421 7.488284
LeftArm 30.917478 -9.051985 -55.560613
LeftForeArm 9.483504 -0.000000 61.879853
LeftHand -12.057925 -0.000000 49.239782
LeftHandThumb1 -26.253704 0.000000 33.147579
RightShoulder -3.198782 -16.800707 -4.839583
RightArm 4.761713 -13.471001 52.512977
RightForeArm -166.619212 -0.000000 29.963047
RightHand 0.175032 -0.000000 3.779855
RightHandThumb1 -24.326973 -0.000000 -32.862282
LeftUpLeg -58.434604 44.963703 4.829481
LeftLeg 104.377703 -0.000000 -0.000000
LeftFoot -6.202796 2.853565 -32.209480
LeftToeBase 16.396623 -0.000000 -0.000000
RightUpLeg -26.324296 -27.331915 -4.934780
RightLeg 34.264980 -0.000000 -0.000000
RightFoot -30.266103 -24.293518 11.242348
RightToeBase 2.127011 -0.000000 -0.000000
2678
root -3.401895 36.531342 3.437684 56.640248 62.291048 51.443859
Spine 4.409962 -4.942706 -12.576139
Head -5.358502 3.747715 -7.382615
LeftShoulder 7.210631 -18.905013 7.468895
LeftArm 30.948403 -9.025008 -55.484827
LeftForeArm 9.317314 -0.000000 61.781339
LeftHand -12.074843 -0.000000 49.037427
LeftHandThumb1 -26.253704 0.000000 33.147579
RightShoulder -3.050706 -16.741909 -4.982173
RightArm 4.911282 -13.471725 52.292430
RightForeArm -166.467326 -0.000000 30.004352
RightHand 0.140228 -0.000000 3.826644
RightHandThumb1 -24.326973 -0.000000 -32.862282
LeftUpLeg -58.618989 44.974707 4.568631
LeftLeg 104.558612 -0.000000 -0.000000
LeftFoot -6.226467 2.562811 -32.072315
LeftToeBase 16.327212 -0.000000 -0.000000
RightUpLeg -26.398473 -27.395564 -4.907350
RightLeg 34.263046 -0.000000 -0.000000
RightFoot -30.202808 -24.134493 11.118863
RightToeBase 2.147816 -0.000000 -0.000000
2679
root -3.411157 36.532556 3.412533 56.404687 62.176883 51.144485
Spine 4.364815 -4.769693 -12.442216
Head -5.484217 3.698300 -7.459548
LeftShoulder 7.235403 -18.918827 7.383982
LeftArm 30.982048 -8.970374 -55.302302
LeftForeArm 9.088931 0.000000 61.667800
LeftHand -12.030316 -0.000000 48.850056
LeftHandThumb1 -26.253704 0.000000 33.147579
RightShoulder -2.896415 -16.700418 -5.129503
RightArm 5.043824 -13.430483 52.091470
RightForeArm -166.362361 -0.000000 30.033762
RightHand 0.186118 0.000000 3.854284
RightHandThumb1 -24.326973 -0.000000 -32.862282
LeftUpLeg -58.885531 44.997391 4.229352
LeftLeg 104.762011 -0.000000 -0.000000
LeftFoot -6.320829 2.358483 -32.033910
LeftToeBase 16.338042 -0.000000 -0.000000
RightUpLeg -26.529593 -27.444973 -4.861626
RightLeg 34.268400 -0.000000 -0.000000
RightFoot -30.137947 -23.982472 11.014177
RightToeBase 2.145894 -0.000000 -0.000000
